<?xml version="1.0" encoding="UTF-8"?>
<!DOCTYPE svg PUBLIC "-//W3C//DTD SVG 1.1//EN" "http://www.w3.org/Graphics/SVG/1.1/DTD/svg11.dtd">
<!-- Creator: CorelDRAW 2019 (64 Bit) -->
<svg xmlns="http://www.w3.org/2000/svg" xml:space="preserve" width="270.933mm" height="40.4766mm" version="1.1" style="shape-rendering:geometricPrecision; text-rendering:geometricPrecision; image-rendering:optimizeQuality; fill-rule:evenodd; clip-rule:evenodd"
viewBox="0 0 27093.32 4047.66"
 xmlns:xlink="http://www.w3.org/1999/xlink"
 xmlns:xodm="http://www.corel.com/coreldraw/odm/2003">
 <defs>
  <style type="text/css">
   <![CDATA[
    .fil2 {fill:#FF6400}
    .fil0 {fill:white}
    .fil3 {fill:white}
    .fil1 {fill:white;fill-opacity:0.501961}
   ]]>
  </style>
 </defs>
 <g id="Camada_x0020_1">
  <metadata id="CorelCorpID_0Corel-Layer"/>
  <path class="fil0" d="M-0 1435.37c0,0 19658.53,4656.12 27093.32,687.92l0 1924.37 -27093.32 0 0 -2612.29z"/>
  <path class="fil1" d="M-0 0c2925.03,2050.31 19076.45,6410.09 27093.32,1594.13l0 2453.53 -27093.32 0 0 -4047.66z"/>
  <circle class="fil2" cx="24818.78" cy="2850.47" r="673.72"/>
  <g id="_2282089683680">
   <path class="fil3" d="M25019.85 2498.19l108.01 108.01c10.05,10.06 10.05,26.52 0,36.57l-182.78 182.78 -108.01 108.01c-10.06,10.06 -26.52,10.06 -36.58,0l-108.01 -108.01 -182.77 -182.78c-10.06,-10.05 -10.06,-26.51 0,-36.57l108 -108.01c10.06,-10.06 26.52,-10.06 36.58,0l164.49 164.49 164.49 -164.49c10.06,-10.06 26.52,-10.06 36.58,0z"/>
   <path class="fil3" d="M24961.18 2896.61l76.5 76.5c7.12,7.12 7.12,18.78 0,25.9l-129.45 129.45 -76.5 76.5c-7.12,7.12 -18.78,7.12 -25.9,0l-76.5 -76.5 -129.45 -129.45c-7.12,-7.12 -7.12,-18.78 0,-25.9l76.5 -76.5c7.12,-7.12 18.78,-7.12 25.9,0l116.5 116.5 116.5 -116.5c7.12,-7.12 18.78,-7.12 25.9,0z"/>
  </g>
 </g>
</svg>
