<?xml version="1.0" encoding="UTF-8"?>
<!DOCTYPE svg PUBLIC "-//W3C//DTD SVG 1.1//EN" "http://www.w3.org/Graphics/SVG/1.1/DTD/svg11.dtd">
<!-- Creator: CorelDRAW 2019 (64 Bit) -->
<svg xmlns="http://www.w3.org/2000/svg" xml:space="preserve" width="85.0691mm" height="84.6668mm" version="1.1" style="shape-rendering:geometricPrecision; text-rendering:geometricPrecision; image-rendering:optimizeQuality; fill-rule:evenodd; clip-rule:evenodd"
viewBox="0 0 3488.71 3472.22"
 xmlns:xlink="http://www.w3.org/1999/xlink"
 xmlns:xodm="http://www.corel.com/coreldraw/odm/2003">
 <defs>
  <style type="text/css">
   <![CDATA[
    .fil4 {fill:black;fill-rule:nonzero}
    .fil0 {fill:#FF6400;fill-rule:nonzero}
    .fil3 {fill:#FFAE57;fill-rule:nonzero}
    .fil2 {fill:#FFAE57;fill-rule:nonzero}
    .fil1 {fill:white;fill-rule:nonzero}
   ]]>
  </style>
 </defs>
 <g id="Camada_x0020_1">
  <metadata id="CorelCorpID_0Corel-Layer"/>
  <g id="_018-teamwork.svg">
   <rect class="fil0" x="1491.97" y="695.96" width="1928.61" height="578.82"/>
   <path class="fil1" d="M2586.83 1170.22l-280.72 -483.27 0 109.29 0 -109.29 -70.77 -121.83c-4.11,-7.07 -7.95,-14.26 -11.55,-21.57 -74.37,31.94 -126.47,105.84 -126.47,191.9l0 181.06c0,28.55 7.56,56.59 21.9,81.27l158.25 272.44c18.76,32.3 28.65,68.98 28.65,106.34l0 98.9 344.34 0 0 -69.05c-0,-82.96 -21.95,-164.46 -63.63,-236.19z"/>
   <g>
    <path class="fil2" d="M3109.1 1206.88c26.6,-97.13 40.09,-197.39 40.09,-298.1l0 -572.4c0,-55.46 -44.96,-100.43 -100.43,-100.43l0 0c-55.47,0 -100.43,44.96 -100.43,100.43l0 100.43 0 -100.43 0 -33.03c0,-59.11 -47.92,-107.03 -107.03,-107.03l0 0c-59.12,0 -107.03,47.92 -107.03,107.03l0 128.17 0 -128.17 0 -84.58c0,-50.87 -35.93,-93.31 -83.8,-103.41l0 2.1 0 -2.1c-7.07,-1.49 -14.4,-2.3 -21.92,-2.3 -58.38,0 -105.72,47.33 -105.72,105.71l0 64.75 0 155.93 0 -155.93c0,-59.85 -48.52,-108.35 -108.35,-108.35 -59.85,0 -108.35,48.52 -108.35,108.35l0 243.14 0 160.28 280.72 483.27c41.67,71.74 63.62,153.23 63.62,236.19l0 69.05 385.09 0 73.55 -268.58z"/>
    <path class="fil2" d="M2306.11 686.95l0 -160.28c-29.24,0 -57.06,6.03 -82.32,16.88 3.6,7.31 7.45,14.5 11.55,21.57l70.77 121.83z"/>
   </g>
   <rect class="fil0" x="2591.53" y="1475.47" width="557.65" height="1928.61"/>
   <path class="fil1" d="M2201.94 2269.23c-32.3,18.76 -68.98,28.65 -106.34,28.65l-98.9 0 0 729.43 268.58 73.56c28.41,7.78 57.1,14.3 85.97,19.82l0 -938.18 -149.31 86.73z"/>
   <path class="fil2" d="M3135.78 3140.95c55.47,0 100.43,-44.96 100.43,-100.43l0 0c0,-55.47 -44.96,-100.43 -100.43,-100.43l-100.43 -0 100.43 0 33.03 0c59.12,0 107.03,-47.92 107.03,-107.03l0 0c0,-59.12 -47.92,-107.03 -107.03,-107.03l-128.17 0 128.17 0 84.58 0c58.38,0 105.71,-47.33 105.71,-105.71 0,-58.38 -47.33,-105.72 -105.71,-105.72l-64.76 0 -155.93 0 155.93 0c59.85,0 108.36,-48.52 108.36,-108.35 0,-59.85 -48.52,-108.36 -108.36,-108.36l-243.14 0 -269.57 0 269.57 0c0,-115.31 -93.47,-208.78 -208.78,-208.78l-181.06 0c-28.55,0 -56.59,7.55 -81.27,21.89l-123.12 71.52 0 938.18c69.86,13.37 140.86,20.26 212.12,20.26l572.39 0z"/>
   <rect class="fil0" x="68.14" y="2515.14" width="1928.61" height="625.79"/>
   <path class="fil1" d="M658.24 2154.02l43.11 -157.4 -248.17 0 -73.56 268.58c-26.6,97.13 -40.09,197.39 -40.09,298.09l0 572.4c0,55.47 44.97,100.43 100.43,100.43l0 0c55.47,0 100.43,-44.96 100.43,-100.43l0 -100.43 0 100.43 0 33.03c0,40.85 22.89,76.33 56.54,94.37l0 -653.15c-0.01,-154.03 20.61,-307.37 61.31,-455.92z"/>
   <path class="fil2" d="M647.42 3275.76c59.12,0 107.03,-47.92 107.03,-107.03l0 -128.17 0 128.17 0 84.58c0,58.38 47.33,105.71 105.72,105.71 15.71,0 30.55,-3.52 43.95,-9.67l0 -17.55 0 17.55c36.41,-16.69 61.76,-53.37 61.76,-96.05l0 -64.75 0 -155.93 0 155.93c0,59.85 48.52,108.35 108.36,108.35 59.85,0 108.35,-48.52 108.35,-108.35l0 -243.14 0 -269.57 0 269.57c115.31,0 208.78,-93.47 208.78,-208.79l0 -181.06c0,-28.55 -7.55,-56.59 -21.9,-81.27l-158.25 -272.43c-18.76,-32.3 -28.65,-68.99 -28.65,-106.34l0 -98.9 -481.25 -0 -43.11 157.4c-40.69,148.56 -61.31,301.89 -61.31,455.92l0 653.15c15.05,8.07 32.23,12.67 50.5,12.67l0 0z"/>
   <rect class="fil0" x="701.36" y="68.14" width="581.7" height="1928.61"/>
   <g>
    <path class="fil1" d="M980.5 1174.34l-159.78 0 -86.04 0 -186.51 0c0,115.31 94.51,208.78 211.1,208.78l183.06 0c28.86,0 57.21,-7.55 82.17,-21.9l37.95 -21.81c-49.83,-38.19 -81.94,-97.92 -81.94,-165.09z"/>
    <path class="fil1" d="M625.12 1065.98c0,-59.85 49.05,-108.35 109.56,-108.35l-65.47 0c-59.03,0 -106.89,-47.33 -106.89,-105.72 0,-58.38 47.85,-105.71 106.89,-105.71l85.51 0c-59.76,0 -108.22,-47.92 -108.22,-107.03l0 0c0,-59.11 48.45,-107.03 108.22,-107.03l33.4 0c-56.08,0 -101.54,-44.96 -101.54,-100.43l0 0c0,-55.47 45.46,-100.43 101.54,-100.43l-432.34 -0c-56.08,0 -101.54,44.97 -101.54,100.43l0 0c0,55.47 45.46,100.43 101.54,100.43l101.54 0 -101.53 0 -33.4 0c-59.76,0 -108.22,47.92 -108.22,107.03l0 0c0,59.12 48.45,107.03 108.22,107.03l129.6 0 -129.6 0 -85.51 0c-59.03,0 -106.88,47.33 -106.88,105.71 0,58.38 47.85,105.72 106.88,105.72l65.46 0 157.66 0 -157.66 0c-60.51,0 -109.55,48.52 -109.55,108.35 0,59.85 49.05,108.35 109.55,108.35l245.83 0 186.51 0c-60.51,0.01 -109.56,-48.51 -109.56,-108.35z"/>
   </g>
   <path class="fil3" d="M1407.46 1174.34l99.99 0 0 -729.43 -271.55 -73.56c-98.21,-26.6 -199.57,-40.08 -301.39,-40.08l-146.39 0c-56.08,0 -101.54,44.96 -101.54,100.43l0 0c0,55.46 45.46,100.43 101.54,100.43l101.54 0 -101.54 0 -33.4 0c-59.76,0 -108.22,47.92 -108.22,107.03l0 0c0,59.12 48.45,107.03 108.22,107.03l129.6 0 -129.6 0 -85.51 0c-59.03,0 -106.89,47.33 -106.89,105.71 0,58.38 47.85,105.72 106.89,105.72l65.47 0 157.65 0 -157.65 0c-60.51,0 -109.56,48.52 -109.56,108.36 0,59.85 49.05,108.35 109.56,108.35l86.05 0 159.78 0 272.55 0 -272.55 0c0,67.18 32.12,126.9 81.94,165.09l237.49 -136.45c32.65,-18.75 69.75,-28.63 107.51,-28.63z"/>
   <path class="fil4" d="M3420.58 1206.62l-241.09 0c25,-97.28 37.83,-197.36 37.83,-297.84l0 -509.37 203.26 0c37.63,0 68.14,-30.5 68.14,-68.14 0,-37.63 -30.5,-68.13 -68.14,-68.13l-220.02 -0c-27.31,-56.36 -85.09,-95.31 -151.8,-95.31 -27.76,0 -53.96,6.74 -77.07,18.67 -32.09,-35.77 -78.66,-58.31 -130.39,-58.31 -20.57,0 -40.32,3.56 -58.67,10.1 -29.09,-55.45 -87.23,-93.36 -154.07,-93.36 -59.86,0 -112.76,30.41 -144.04,76.6 -21.49,-9.32 -45.16,-14.49 -70.03,-14.49 -90.42,0 -165.14,68.36 -175.28,156.1l-747.23 0c-37.63,0 -68.14,30.51 -68.14,68.14l0 24.33 -72.64 -19.9 0 -266.81c0,-37.64 -30.51,-68.14 -68.14,-68.14 -37.64,0 -68.14,30.5 -68.14,68.14l-0 229.96c-94.68,-23.62 -191.95,-35.72 -289.61,-35.72l-517.61 -0 0 -194.99c0,-37.63 -30.51,-68.14 -68.14,-68.14 -37.64,0 -68.14,30.51 -68.14,68.14l0 216.06c-51.87,28.77 -87.09,84.09 -87.09,147.49 0,27.75 6.74,53.96 18.67,77.07 -35.77,32.09 -58.32,78.65 -58.32,130.39 0,20.57 3.56,40.33 10.11,58.68 -55.45,29.09 -93.36,87.23 -93.36,154.07 0,59.86 30.41,112.76 76.6,144.04 -9.32,21.48 -14.48,45.16 -14.48,70.03 0,87.57 64.12,160.41 147.86,174.13l0 756.64c0,37.63 30.51,68.14 68.14,68.14l24.33 0 -17.64 64.41 -278.08 0c-37.63,0 -68.14,30.5 -68.14,68.14 0,37.64 30.51,68.14 68.14,68.14l241.08 0c-25,97.28 -37.83,197.36 -37.83,297.84l0 509.37 -203.26 0c-37.63,0 -68.14,30.51 -68.14,68.14 0,37.64 30.51,68.14 68.14,68.14l220.02 -0c27.31,56.36 85.09,95.31 151.8,95.31 27.75,0 53.96,-6.74 77.07,-18.67 32.09,35.77 78.66,58.31 130.39,58.31 20.57,0 40.32,-3.56 58.68,-10.1 29.09,55.45 87.23,93.36 154.07,93.36 59.86,0 112.75,-30.41 144.04,-76.6 21.49,9.32 45.16,14.48 70.03,14.48 90.42,0 165.14,-68.36 175.28,-156.1l747.23 -0c37.63,0 68.14,-30.5 68.14,-68.14l0 -24.32 72.65 19.9 0 267.56c0,37.63 30.5,68.14 68.14,68.14 37.64,0 68.14,-30.5 68.14,-68.13l0 -230.71c94.68,23.62 191.95,35.72 289.61,35.72l517.61 0 0 194.99c0,37.64 30.51,68.14 68.14,68.14 37.64,0 68.14,-30.51 68.14,-68.14l0 -216.07c51.87,-28.77 87.07,-84.09 87.07,-147.5 0,-27.75 -6.74,-53.96 -18.67,-77.07 35.77,-32.09 58.31,-78.65 58.31,-130.39 0,-20.57 -3.56,-40.32 -10.1,-58.68 55.45,-29.09 93.36,-87.23 93.36,-154.07 0,-59.86 -30.41,-112.75 -76.6,-144.04 9.32,-21.49 14.49,-45.16 14.49,-70.03 0,-87.57 -64.12,-160.41 -147.86,-174.13l0 -756.64c0,-37.64 -30.51,-68.14 -68.14,-68.14l-24.33 0 17.64 -64.41 278.08 0c37.63,0 68.14,-30.51 68.14,-68.14 0,-37.64 -30.5,-68.14 -68.14,-68.14zm-2964.62 -317.14l-220.68 0c-20.72,0 -37.58,-16.86 -37.58,-37.58 0,-20.72 16.86,-37.58 37.58,-37.58l212.75 0c37.63,0 68.14,-30.5 68.14,-68.13 0,-37.64 -30.5,-68.14 -68.13,-68.14l-128.18 -0c-21.44,0 -38.89,-17.45 -38.89,-38.89 0,-21.44 17.45,-38.89 38.89,-38.89l133.46 0c37.63,0 68.14,-30.51 68.14,-68.14 0,-37.64 -30.51,-68.14 -68.14,-68.14l-100.43 0c-17.81,0 -32.29,-14.49 -32.29,-32.29 0,-17.81 14.48,-32.29 32.29,-32.29l572.39 0c94.61,0 188.85,12.66 280.1,37.66l218.44 59.83 0 609.31 -30.77 0c-49.32,0 -97.92,13.09 -140.56,37.86l-272.43 158.25c-14.27,8.29 -30.54,12.67 -47.04,12.67l-181.06 0c-52.85,0 -98.98,-29.3 -123.01,-72.51l183.8 0c37.63,0 68.14,-30.5 68.14,-68.13 0,-37.64 -30.51,-68.14 -68.14,-68.14l-512.72 -0c-22.17,0 -40.21,-18.04 -40.21,-40.21 0,-22.17 18.04,-40.21 40.21,-40.21l155.93 0c37.64,0 68.14,-30.51 68.14,-68.14 0,-37.63 -30.52,-68.15 -68.14,-68.15zm658.51 2299.2c0,22.17 -18.04,40.21 -40.22,40.21 -22.17,0 -40.21,-18.04 -40.21,-40.21l0 -155.93c0,-37.63 -30.51,-68.14 -68.14,-68.14 -37.63,0 -68.14,30.51 -68.14,68.14l0 220.68c0,20.72 -16.86,37.58 -37.58,37.58 -20.72,0 -37.58,-16.86 -37.58,-37.58l0 -212.75c0,-37.64 -30.5,-68.14 -68.13,-68.14 -37.64,0 -68.14,30.5 -68.14,68.14l0 128.18c0,21.44 -17.45,38.89 -38.89,38.89 -21.44,0 -38.89,-17.45 -38.89,-38.89l0 -133.46c0,-37.64 -30.51,-68.14 -68.14,-68.14 -37.64,0 -68.14,30.5 -68.14,68.14l0 100.43c0,17.8 -14.49,32.29 -32.29,32.29 -17.8,0 -32.29,-14.49 -32.29,-32.29l0 -572.4c0,-94.61 12.68,-188.85 37.67,-280.09l59.83 -218.44 609.3 -0 0 30.76c0,49.32 13.09,97.92 37.86,140.56l158.25 272.44c8.29,14.27 12.67,30.53 12.67,47.04l0 181.06c0,52.85 -29.3,98.98 -72.51,123.01l0 -183.8c0,-37.63 -30.5,-68.14 -68.14,-68.14 -37.63,0 -68.14,30.51 -68.14,68.14l0 512.72 -0.01 -0zm814.15 -115.88l-677.87 0 0 -67.6c119.86,-30.44 208.78,-139.25 208.78,-268.44l0 -181.06c0,-40.52 -10.76,-80.47 -31.11,-115.5l-158.25 -272.43c-12.71,-21.87 -19.43,-46.81 -19.43,-72.11l0 -30.77 32.29 0c37.63,0 68.14,-30.5 68.14,-68.14l0 -427.63c0,-37.63 -30.5,-68.13 -68.14,-68.13 -37.63,0 -68.13,30.5 -68.13,68.14l0 359.49 -807.22 -0 0 -686.14 75.84 0c30.44,119.86 139.25,208.78 268.44,208.78l181.06 0c40.52,0 80.46,-10.76 115.49,-31.11l272.44 -158.25c21.87,-12.71 46.81,-19.43 72.11,-19.43l30.77 0 0 32.29c0,37.63 30.5,68.14 68.14,68.14l476.88 0c37.63,0 68.14,-30.51 68.14,-68.14 0,-37.64 -30.51,-68.14 -68.14,-68.14l-408.75 -0 0 -807.22 677.87 0 0 67.6c-119.85,30.44 -208.78,139.25 -208.78,268.44l0 181.06c0,40.52 10.76,80.46 31.11,115.49l158.25 272.44c12.71,21.87 19.43,46.81 19.43,72.11l0 30.77 -32.29 0c-37.63,0 -68.14,30.5 -68.14,68.14l0 483.53c0,37.63 30.51,68.14 68.14,68.14 37.63,0 68.14,-30.5 68.14,-68.14l0 -415.39 761.5 0c0.08,0 0.16,0.01 0.25,0.01 0.14,0 0.27,-0.01 0.4,-0.01l45.06 0 0 686.14 -75.84 0c-30.44,-119.86 -139.25,-208.78 -268.44,-208.78l-181.06 0c-40.52,0 -80.47,10.76 -115.49,31.11l-272.44 158.25c-21.87,12.71 -46.81,19.43 -72.11,19.43l-30.77 0 0 -32.29c0,-37.63 -30.51,-68.13 -68.14,-68.13l-492.85 0c-37.63,0 -68.14,30.5 -68.14,68.14 0,37.64 30.51,68.14 68.14,68.14l424.71 0 0 807.22 -0.01 0zm1104.14 -490.08l220.67 0c20.72,0 37.58,16.86 37.58,37.58 0,20.72 -16.86,37.58 -37.58,37.58l-212.75 0c-37.63,0 -68.14,30.5 -68.14,68.14 0,37.64 30.51,68.14 68.14,68.14l128.17 0c21.44,0 38.89,17.45 38.89,38.89 0,21.44 -17.45,38.89 -38.89,38.89l-133.46 0c-37.63,0 -68.14,30.5 -68.14,68.14 0,37.64 30.51,68.14 68.14,68.14l100.43 0c17.8,0 32.29,14.48 32.29,32.29 0,17.8 -14.49,32.29 -32.29,32.29l-572.4 0c-94.61,0 -188.85,-12.66 -280.09,-37.66l-218.44 -59.83 0 -609.3 30.76 0c49.32,0 97.92,-13.09 140.56,-37.86l272.44 -158.25c14.27,-8.29 30.53,-12.67 47.04,-12.67l181.06 0c52.85,0 98.98,29.3 123.01,72.51l-183.8 0c-37.63,0 -68.14,30.5 -68.14,68.14 0,37.64 30.51,68.14 68.14,68.14l512.72 0c22.17,0 40.21,18.04 40.21,40.21 0,22.17 -18.04,40.22 -40.21,40.22l-155.93 -0c-37.63,0 -68.14,30.51 -68.14,68.14 0,37.64 30.51,68.15 68.14,68.15zm-658.51 -1175.41l0 -30.77c0,-49.32 -13.09,-97.92 -37.86,-140.56l-158.25 -272.43c-8.29,-14.27 -12.67,-30.54 -12.67,-47.04l0 -181.06c0,-52.85 29.3,-98.98 72.51,-123.01l0 183.8c0,37.63 30.5,68.14 68.14,68.14 37.64,0 68.14,-30.5 68.14,-68.13l0 -512.72c0,-22.17 18.04,-40.21 40.21,-40.21 22.17,0 40.22,18.04 40.22,40.21l0 155.93c0,37.64 30.5,68.14 68.14,68.14 37.64,0 68.14,-30.51 68.14,-68.14l-0 -220.68c0,-20.72 16.86,-37.58 37.58,-37.58 20.72,0 37.58,16.86 37.58,37.58l0 212.75c0,37.63 30.51,68.14 68.14,68.14 37.64,0 68.14,-30.5 68.14,-68.13l-0 -128.18c0,-21.44 17.45,-38.89 38.89,-38.89 21.44,0 38.89,17.45 38.89,38.89l0 133.46c0,37.63 30.51,68.14 68.14,68.14 37.63,0 68.14,-30.51 68.14,-68.14l-0 -100.43c0,-17.8 14.49,-32.29 32.29,-32.29 17.8,0 32.29,14.49 32.29,32.29l0 572.4c0,94.61 -12.68,188.85 -37.67,280.09l-59.83 218.44 -609.29 0z"/>
   <circle class="fil4" cx="1054.72" cy="1778.08" r="68.14"/>
   <circle class="fil4" cx="1054.72" cy="1550.84" r="68.14"/>
   <circle class="fil4" cx="1790.56" cy="2416.34" r="68.14"/>
   <circle class="fil4" cx="1563.38" cy="2416.34" r="68.14"/>
   <circle class="fil4" cx="2433.86" cy="1681.66" r="68.14"/>
   <circle class="fil4" cx="2433.86" cy="1908.84" r="68.14"/>
   <circle class="fil4" cx="1708.72" cy="1077.68" r="68.14"/>
   <circle class="fil4" cx="1935.9" cy="1077.68" r="68.14"/>
   <g>
   </g>
   <g>
   </g>
   <g>
   </g>
   <g>
   </g>
   <g>
   </g>
   <g>
   </g>
   <g>
   </g>
   <g>
   </g>
   <g>
   </g>
   <g>
   </g>
   <g>
   </g>
   <g>
   </g>
   <g>
   </g>
   <g>
   </g>
   <g>
   </g>
  </g>
 </g>
</svg>
